<svg id="Layer_1" height="512" viewBox="0 0 256 256" width="512" xmlns="http://www.w3.org/2000/svg"><g><g><g><g><g><path d="m126.127 200.437c-7.549 0-14.773-1.38-21.446-3.886v21.254c0 11.844 9.602 21.446 21.446 21.446s21.446-9.602 21.446-21.446v-21.254c-6.674 2.506-13.898 3.886-21.446 3.886z" fill="#fedbb0"/></g><path d="m137.573 199.35v18.456c0 10.12-7.018 18.58-16.446 20.836 1.607.384 3.275.61 5 .61 11.844 0 21.446-9.602 21.446-21.446v-21.254c-3.213 1.206-6.556 2.144-10 2.798z" fill="#e8c197"/><g><g><path d="m126.127 39.726c-33.702 0-61.022 27.32-61.022 61.022v38.668c0 33.701 27.32 61.022 61.022 61.022 33.701 0 61.022-27.32 61.022-61.022v-38.668c-.001-33.702-27.321-61.022-61.022-61.022z" fill="#fedbb0"/></g></g><g><path d="m180.719 108.291c-1.986-6.025-4.503-11.296-7.413-15.922.376 2.74.577 5.535.577 8.378v38.668c0 31.459-23.809 57.35-54.389 60.656 2.179.236 4.391.365 6.633.365 24.414 0 45.471-14.344 55.227-35.058.397-1.897 6.958-34.056-.635-57.087z" fill="#e8c197"/></g><g><path d="m126.127 171.905c7.281 0 13.353-5.347 14.738-12.448.313-1.607-.982-3.084-2.619-3.084h-24.237c-1.637 0-2.933 1.477-2.619 3.084 1.383 7.101 7.455 12.448 14.737 12.448z" fill="#d1ab86"/></g><g><circle cx="152.658" cy="126.636" fill="#725246" r="7.02"/></g><g><circle cx="99.595" cy="126.636" fill="#725246" r="7.02"/></g></g><g><path d="m214.764 82.119c-2.227-13.492-9.763-25.732-19.968-35.827-.053.001-39.39.636-74.19 15.297 22.03 2.773 49.11 13.333 60.112 46.703 7.827 23.739.615 57.18.615 57.18s39.888-44.238 33.431-83.353z" fill="#7eb7c4"/></g><g><g><path d="m181.334 165.472s39.888-44.237 33.431-83.353c-2.227-13.492-9.763-25.733-19.968-35.827-.02 0-4.803.078-12.489.796 9.805 9.941 17.022 21.888 19.192 35.032 3.591 21.753-7.151 45.08-17.395 61.512-.737 12.404-2.771 21.84-2.771 21.84z" fill="#6ea6af"/></g></g><g><path d="m70.922 165.48s-39.888-44.238-33.431-83.353 51.659-64.192 88.636-65.334c44.318-1.37 68.672 29.499 68.672 29.499s-103.356 1.627-123.263 62.008c-7.826 23.739-.614 57.18-.614 57.18z" fill="#8dc8d8"/></g></g><g><path d="m201.537 172.37 1.087 5.062c1.142 5.319 5.297 9.473 10.615 10.615l5.062 1.087c1.22.262 1.22 2.004 0 2.266l-5.062 1.087c-5.319 1.142-9.473 5.297-10.615 10.615l-1.087 5.062c-.262 1.22-2.004 1.22-2.266 0l-1.087-5.062c-1.142-5.319-5.297-9.473-10.615-10.615l-5.062-1.087c-1.22-.262-1.22-2.004 0-2.266l5.062-1.087c5.319-1.142 9.473-5.297 10.615-10.615l1.087-5.062c.262-1.221 2.004-1.221 2.266 0z" fill="#e06e9a"/></g><g><path d="m54.277 169.335.62 2.886c.651 3.033 3.02 5.402 6.053 6.053l2.886.62c.696.149.696 1.142 0 1.292l-2.886.62c-3.033.651-5.401 3.02-6.053 6.053l-.62 2.886c-.149.696-1.142.696-1.292 0l-.62-2.886c-.651-3.033-3.02-5.402-6.053-6.053l-2.886-.62c-.696-.149-.696-1.142 0-1.292l2.886-.62c3.033-.651 5.401-3.02 6.053-6.053l.62-2.886c.15-.696 1.143-.696 1.292 0z" fill="#e06e9a"/></g><g><path d="m69.745 200.886.878 4.09c.923 4.297 4.279 7.653 8.576 8.576l4.09.878c.986.212.986 1.619 0 1.83l-4.09.878c-4.297.923-7.653 4.279-8.576 8.576l-.878 4.09c-.212.986-1.619.986-1.83 0l-.878-4.09c-.923-4.297-4.279-7.653-8.576-8.576l-4.09-.878c-.986-.212-.986-1.619 0-1.83l4.09-.878c4.297-.923 7.653-4.279 8.576-8.576l.878-4.09c.212-.986 1.619-.986 1.83 0z" fill="#e06e9a"/></g></g><g><g><path d="m126.126 241.252c-12.928 0-23.446-10.518-23.446-23.446v-19.886c-14.507-5.828-26.602-17.138-33.385-31.257-3.026-3.395-40.188-46.033-33.778-84.861 6.581-39.864 52.125-65.821 90.547-67.008 43.558-1.354 68.656 28.25 70.227 30.165 11.239 11.147 18.308 23.882 20.445 36.835 6.406 38.808-30.71 81.418-33.773 84.855-6.783 14.125-18.881 25.441-33.392 31.271v19.886c.002 12.928-10.516 23.446-23.445 23.446zm-54.054-77.492c.267.192.49.453.639.77 6.501 13.804 18.411 24.793 32.673 30.149.78.293 1.297 1.039 1.297 1.873v21.254c0 10.723 8.723 19.446 19.446 19.446s19.446-8.724 19.446-19.446v-21.254c0-.833.517-1.579 1.297-1.873 14.263-5.356 26.172-16.346 32.674-30.151.146-.311.364-.568.625-.76 3.742-4.299 38.543-45.458 32.623-81.324-2.005-12.149-8.714-24.16-19.401-34.731-.075-.074-.143-.153-.204-.235-1.174-1.437-25.145-29.98-66.997-28.687-36.843 1.139-80.476 25.802-86.726 63.662-5.913 35.818 28.791 76.919 32.608 81.307z" fill="#422618"/></g><g><path d="m200.404 211.079c-1.502 0-2.772-1.026-3.088-2.495l-1.087-5.063c-.975-4.541-4.539-8.104-9.08-9.08l-5.062-1.087c-1.469-.316-2.496-1.586-2.496-3.088s1.026-2.772 2.496-3.088l5.062-1.087c4.541-.975 8.104-4.539 9.08-9.08l1.087-5.062c.316-1.469 1.586-2.496 3.088-2.496s2.772 1.026 3.088 2.496l1.087 5.062c.975 4.541 4.539 8.104 9.08 9.08l5.062 1.087c1.469.316 2.496 1.586 2.496 3.088s-1.026 2.772-2.496 3.088l-5.062 1.087c-4.541.975-8.104 4.539-9.08 9.08l-1.087 5.063c-.316 1.469-1.586 2.495-3.088 2.495zm-13.646-20.812 1.231.264c6.076 1.305 10.846 6.075 12.151 12.151l.264 1.231.264-1.231c1.305-6.076 6.075-10.846 12.151-12.151l1.231-.264-1.231-.264c-6.076-1.305-10.846-6.075-12.151-12.151l-.264-1.231-.264 1.231c-1.305 6.076-6.075 10.846-12.151 12.151z" fill="#422618"/></g><g><path d="m53.631 192.267c-1.266 0-2.336-.865-2.602-2.103l-.62-2.886c-.485-2.259-2.258-4.032-4.517-4.517l-2.886-.62c-1.238-.266-2.102-1.335-2.102-2.602s.864-2.335 2.102-2.602l2.886-.62c2.259-.485 4.032-2.258 4.517-4.517l.62-2.886c.266-1.238 1.335-2.102 2.602-2.102s2.335.864 2.602 2.102l.62 2.886c.485 2.259 2.258 4.032 4.517 4.517l2.887.62c1.238.266 2.102 1.335 2.102 2.602s-.864 2.335-2.102 2.602l-2.887.62c-2.259.485-4.032 2.258-4.517 4.517l-.62 2.886c-.266 1.238-1.336 2.103-2.602 2.103zm-4.832-12.727c2.13.985 3.848 2.703 4.833 4.833.985-2.13 2.703-3.848 4.833-4.833-2.13-.985-3.848-2.703-4.833-4.833-.986 2.13-2.703 3.848-4.833 4.833z" fill="#422618"/></g><g><path d="m68.83 232.544c-1.397 0-2.578-.954-2.871-2.32l-.878-4.089c-.756-3.521-3.52-6.285-7.041-7.041l-4.089-.878c-1.366-.293-2.32-1.474-2.32-2.871s.954-2.578 2.32-2.871l4.089-.878c3.521-.756 6.285-3.519 7.041-7.04l.878-4.09c.293-1.365 1.474-2.319 2.871-2.319s2.578.954 2.871 2.32l.878 4.089c.756 3.521 3.52 6.284 7.041 7.04l4.089.878c1.366.293 2.32 1.474 2.32 2.871 0 1.396-.954 2.577-2.32 2.871l-4.089.878c-3.521.756-6.285 3.52-7.041 7.041l-.878 4.089c-.293 1.366-1.473 2.32-2.871 2.32zm-9.281-17.199c4.516 1.22 8.062 4.766 9.281 9.281 1.22-4.515 4.766-8.062 9.281-9.281-4.515-1.219-8.062-4.765-9.281-9.281-1.22 4.516-4.766 8.062-9.281 9.281z" fill="#422618"/></g></g></g></svg>