<svg id="Layer_1" height="512" viewBox="0 0 256 256" width="512" xmlns="http://www.w3.org/2000/svg"><g><g><path d="m122.391 89.884h-58.564v20h56.029c.88-6.799 1.716-13.532 2.535-20z" fill="#7eb7c4"/><path d="m148.031 184.223h55.244v-20h-45.118c-3.199 6.985-6.696 13.803-10.126 20z" fill="#7eb7c4"/><g><path d="m130.311 43.497c-6.901 20.478-10.41 85.291-20.199 123.442-7.567 29.491-35.134 68.873-71.313 68.873h-11.305c-.977 0-1.768.792-1.768 1.768 0 4.504 3.277 8.334 7.728 9.022 8.767 1.356 23.154 2.778 33.255-.285 15.466-4.69 23.016-5.271 31.517-3.688l20.161 3.735c3.83.71 7.756-.594 10.4-3.454 2.128-2.301 3.21-5.38 2.989-8.506l-1.009-14.279c-.366-5.173 1.071-10.31 4.085-14.53 9.063-12.691 26.215-42.761 33.114-67.217 7.198-25.515 5.818-48.033 4.748-57.339-.291-2.529 1.509-4.813 4.034-5.132l50.029-6.32c1.999-.253 3.499-1.953 3.499-3.968v-53.76c0-2.437-2.155-4.31-4.567-3.96-18.624 2.704-88.179 14.177-95.398 35.598z" fill="#fedbb0"/></g><g><g><path d="m225.708 7.899c-3.552.516-8.961 1.352-15.433 2.514v61.26l16.501-2.084c2-.253 3.499-1.953 3.499-3.969v-53.76c0-2.438-2.156-4.311-4.567-3.961z" fill="#e8c197"/></g></g><g><g><path d="m122.391 89.884c-3.254 25.697-6.773 55.594-12.28 77.055-.274 1.069-.578 2.153-.905 3.246l38.825 14.038c7.684-13.886 15.721-30.909 19.934-45.845 3.061-10.85 4.567-21.152 5.209-30.133z" fill="#8dc8d8"/></g><g><path d="m148.031 184.223c3.093-5.589 6.24-11.683 9.175-17.95l-43.514-15.734c-1.099 5.823-2.284 11.346-3.581 16.399-.274 1.069-.578 2.153-.905 3.246z" fill="#6ea6af"/></g><g><path d="m119.813 110.219c-.876 6.759-1.797 13.577-2.788 20.259l47.898 17.319c1.151-3.197 2.178-6.352 3.043-9.418.946-3.353 1.74-6.652 2.41-9.878z" fill="#6ea6af"/></g></g></g><g><path d="m51.735 250.152c-6.545 0-13.165-.734-18.587-1.573-5.459-.845-9.422-5.471-9.422-10.999 0-2.078 1.69-3.769 3.769-3.769h11.305c19.961 0 35.439-12.358 44.909-22.727 11.33-12.404 20.477-29.093 24.466-44.644 4.004-15.604 6.998-36.142 9.406-54.558h-53.754c-1.104 0-2-.896-2-2v-20c0-1.104.896-2 2-2h56.802c2.469-19.424 4.786-36.123 7.787-45.025 7.309-21.688 70.273-33.057 97.004-36.938 1.72-.253 3.464.259 4.78 1.397 1.318 1.141 2.075 2.796 2.075 4.541v53.761c0 3.016-2.256 5.574-5.248 5.953l-50.03 6.319c-1.431.181-2.462 1.49-2.297 2.919 1.009 8.77 2.559 31.987-4.81 58.11-1.969 6.98-4.871 14.807-8.638 23.303h42.023c1.104 0 2 .896 2 2v20c0 1.104-.896 2-2 2h-54.067c-4.414 7.906-9.021 15.342-12.729 20.534-2.73 3.822-4.051 8.521-3.718 13.228l1.009 14.278c.259 3.661-1.022 7.309-3.515 10.005-3.129 3.384-7.702 4.901-12.233 4.063l-20.161-3.735c-7.637-1.423-14.461-1.248-30.572 3.636-4.632 1.405-10.068 1.921-15.554 1.921zm-24.006-12.34c.108 3.438 2.61 6.285 6.03 6.814 7.825 1.21 22.435 2.79 32.369-.223 14.947-4.531 23.139-5.476 32.463-3.74l20.16 3.734c3.176.592 6.376-.476 8.567-2.845 1.746-1.889 2.644-4.442 2.462-7.007l-1.009-14.279c-.397-5.633 1.184-11.256 4.453-15.833 3.783-5.299 8.542-13.019 13.058-21.179.352-.636 1.022-1.031 1.75-1.031h53.244v-16h-43.118c-.681 0-1.315-.347-1.683-.92s-.419-1.294-.135-1.913c4.308-9.406 7.572-18.004 9.702-25.556 7.175-25.438 5.667-48.033 4.686-56.567-.414-3.595 2.174-6.89 5.77-7.345l50.03-6.319c.997-.126 1.75-.979 1.75-1.984v-53.761c0-.592-.246-1.13-.692-1.516-.443-.385-1.006-.551-1.588-.464-41.805 6.07-88.397 18.257-93.789 34.257-2.972 8.818-5.305 26.05-7.831 45.999-.127 1-.977 1.749-1.984 1.749h-56.567v16h54.03c.575 0 1.123.248 1.502.68s.555 1.007.481 1.577c-2.473 19.098-5.569 40.84-9.792 57.295-7.498 29.223-35.182 70.376-73.25 70.376h-11.069zm197.979-229.913h.01z" fill="#422618"/></g></g></svg>